<?xml version="1.0" encoding="UTF-8" standalone="no"?>
<!-- Created with Inkscape (http://www.inkscape.org/) -->

<svg
   xmlns:dc="http://purl.org/dc/elements/1.1/"
   xmlns:cc="http://creativecommons.org/ns#"
   xmlns:rdf="http://www.w3.org/1999/02/22-rdf-syntax-ns#"
   xmlns:svg="http://www.w3.org/2000/svg"
   xmlns="http://www.w3.org/2000/svg"
   xmlns:sodipodi="http://sodipodi.sourceforge.net/DTD/sodipodi-0.dtd"
   xmlns:inkscape="http://www.inkscape.org/namespaces/inkscape"
   width="220"
   height="120"
   id="svg2"
   version="1.1"
   inkscape:version="0.48.2 r9819"
   sodipodi:docname="default_userpic_large.svg">
  <defs
     id="defs4" />
  <sodipodi:namedview
     id="base"
     pagecolor="#ffffff"
     bordercolor="#666666"
     borderopacity="1.0"
     inkscape:pageopacity="0.0"
     inkscape:pageshadow="2"
     inkscape:zoom="1"
     inkscape:cx="50.27412"
     inkscape:cy="68"
     inkscape:document-units="px"
     inkscape:current-layer="layer1"
     showgrid="false"
     showborder="true"
     inkscape:window-width="900"
     inkscape:window-height="573"
     inkscape:window-x="66"
     inkscape:window-y="24"
     inkscape:window-maximized="0" />
  <metadata
     id="metadata7">
    <rdf:RDF>
      <cc:Work
         rdf:about="">
        <dc:format>image/svg+xml</dc:format>
        <dc:type
           rdf:resource="http://purl.org/dc/dcmitype/StillImage" />
        <dc:title />
      </cc:Work>
    </rdf:RDF>
  </metadata>
  <g
     inkscape:label="Layer 1"
     inkscape:groupmode="layer"
     id="layer1"
     transform="translate(0,-932.36218)">
    <rect
       style="fill:#dcecf4;fill-opacity:1;stroke-width:1;stroke-miterlimit:4;stroke-dasharray:none"
       id="rect2985"
       width="264.65997"
       height="157.5838"
       x="-14.142136"
       y="925.02203"
       ry="3.5342019" />
    <path
       style="fill:#000000;fill-opacity:1;stroke:none"
       d="m 13.5,1090.4712 c 0,0 7.563767,-24.1095 15.600269,-30.7278 8.036503,-6.6183 59.091929,-25.5277 59.091929,-25.5277 l 1.890942,-8.5092 c 0,0 -5.672825,-6.6183 -8.036502,-12.7639 -2.363677,-6.1455 -4.254619,-14.65477 -4.254619,-14.65477 0,0 -4.727354,-5.20009 -4.727354,-9.92745 0,-4.72735 1.890941,-6.61829 1.890941,-6.61829 0,0 -0.945471,-17.01848 0,-21.74583 0.945471,-4.72736 0.945471,-11.34565 12.291122,-17.96395 11.34565,-6.61829 18.909422,-5.67282 24.109502,-5.67282 5.20009,0 19.24542,1.36067 25.52772,9.92744 5.20009,7.09103 5.67282,17.01848 6.14556,20.80036 0.47273,3.78188 -0.47274,13.23659 -0.47274,13.23659 0,0 3.30915,4.25462 2.83642,8.98198 -0.47274,4.72735 -4.72736,8.50923 -4.72736,8.50923 0,0 -2.36368,16.07301 -4.72735,19.38211 -2.36368,3.3092 -7.56377,8.5093 -7.56377,8.5093 l 1.89094,7.5638 45.85534,16.073 c 0,0 7.09103,1.8909 14.6548,9.9274 7.56376,8.0365 13.70932,33.0915 13.70932,33.0915 z"
       id="path3818"
       inkscape:connector-curvature="0"
       sodipodi:nodetypes="csccscscssssscscscccscc" />
  </g>
</svg>
