<?xml version="1.0" encoding="UTF-8" standalone="no"?>
<!-- Created with Inkscape (http://www.inkscape.org/) -->

<svg
   xmlns:dc="http://purl.org/dc/elements/1.1/"
   xmlns:cc="http://creativecommons.org/ns#"
   xmlns:rdf="http://www.w3.org/1999/02/22-rdf-syntax-ns#"
   xmlns:svg="http://www.w3.org/2000/svg"
   xmlns="http://www.w3.org/2000/svg"
   xmlns:sodipodi="http://sodipodi.sourceforge.net/DTD/sodipodi-0.dtd"
   xmlns:inkscape="http://www.inkscape.org/namespaces/inkscape"
   width="100"
   height="80"
   id="svg2"
   version="1.1"
   inkscape:version="0.48.2 r9819"
   sodipodi:docname="default_userpic_medium.svg">
  <defs
     id="defs4" />
  <sodipodi:namedview
     id="base"
     pagecolor="#ffffff"
     bordercolor="#666666"
     borderopacity="1.0"
     inkscape:pageopacity="0.0"
     inkscape:pageshadow="2"
     inkscape:zoom="1"
     inkscape:cx="50.27412"
     inkscape:cy="68"
     inkscape:document-units="px"
     inkscape:current-layer="layer1"
     showgrid="false"
     showborder="true"
     inkscape:window-width="900"
     inkscape:window-height="573"
     inkscape:window-x="66"
     inkscape:window-y="24"
     inkscape:window-maximized="0" />
  <metadata
     id="metadata7">
    <rdf:RDF>
      <cc:Work
         rdf:about="">
        <dc:format>image/svg+xml</dc:format>
        <dc:type
           rdf:resource="http://purl.org/dc/dcmitype/StillImage" />
        <dc:title></dc:title>
      </cc:Work>
    </rdf:RDF>
  </metadata>
  <g
     inkscape:label="Layer 1"
     inkscape:groupmode="layer"
     id="layer1"
     transform="translate(0,-972.36218)">
    <rect
       style="fill:#dcecf4;fill-opacity:1;stroke-width:1;stroke-miterlimit:4;stroke-dasharray:none"
       id="rect2985"
       width="110.65997"
       height="88.02655"
       x="-4.1421356"
       y="970.02203"
       ry="1.9742106" />
    <path
       style="fill:#000000;fill-opacity:1;stroke:none"
       d="m 2.5,1055.4043 c 0,0 3.8315506,-12.2131 7.902573,-15.5657 4.071023,-3.3526 29.933989,-12.9315 29.933989,-12.9315 l 0.957888,-4.3105 c 0,0 -2.873663,-3.3526 -4.071023,-6.4657 -1.197359,-3.1131 -2.155247,-7.4236 -2.155247,-7.4236 0,0 -2.394719,-2.6342 -2.394719,-5.0289 0,-2.3948 0.957888,-3.3526 0.957888,-3.3526 0,0 -0.478944,-8.621 0,-11.0158 0.478943,-2.3947 0.478943,-5.7473 6.226269,-9.0999 5.747326,-3.3526 9.578877,-2.8737 12.213068,-2.8737 2.634191,0 9.749082,0.6893 12.931483,5.029 2.634191,3.592 2.873663,8.6209 3.113135,10.5367 0.239472,1.9158 -0.239472,6.7052 -0.239472,6.7052 0,0 1.676304,2.1553 1.436832,4.55 -0.239472,2.3947 -2.394719,4.3105 -2.394719,4.3105 0,0 -1.19736,8.142 -2.39472,9.8183 -1.197359,1.6763 -3.83155,4.3105 -3.83155,4.3105 l 0.957887,3.8316 23.228776,8.142 c 0,0 3.592079,0.9579 7.423629,5.0289 3.831551,4.0711 6.944686,16.7631 6.944686,16.7631 z"
       id="path3818"
       inkscape:connector-curvature="0"
       sodipodi:nodetypes="csccscscssssscscscccscc" />
  </g>
</svg>
