<?xml version="1.0" encoding="UTF-8" standalone="no"?>
<!-- Created with Inkscape (http://www.inkscape.org/) -->

<svg
   xmlns:dc="http://purl.org/dc/elements/1.1/"
   xmlns:cc="http://creativecommons.org/ns#"
   xmlns:rdf="http://www.w3.org/1999/02/22-rdf-syntax-ns#"
   xmlns:svg="http://www.w3.org/2000/svg"
   xmlns="http://www.w3.org/2000/svg"
   xmlns:sodipodi="http://sodipodi.sourceforge.net/DTD/sodipodi-0.dtd"
   xmlns:inkscape="http://www.inkscape.org/namespaces/inkscape"
   width="50"
   height="50"
   id="svg2"
   version="1.1"
   inkscape:version="0.48.2 r9819"
   sodipodi:docname="default_userpic_small.svg">
  <defs
     id="defs4" />
  <sodipodi:namedview
     id="base"
     pagecolor="#ffffff"
     bordercolor="#666666"
     borderopacity="1.0"
     inkscape:pageopacity="0.0"
     inkscape:pageshadow="2"
     inkscape:zoom="1"
     inkscape:cx="50.27412"
     inkscape:cy="68"
     inkscape:document-units="px"
     inkscape:current-layer="layer1"
     showgrid="false"
     showborder="true"
     inkscape:window-width="900"
     inkscape:window-height="573"
     inkscape:window-x="66"
     inkscape:window-y="24"
     inkscape:window-maximized="0" />
  <metadata
     id="metadata7">
    <rdf:RDF>
      <cc:Work
         rdf:about="">
        <dc:format>image/svg+xml</dc:format>
        <dc:type
           rdf:resource="http://purl.org/dc/dcmitype/StillImage" />
        <dc:title></dc:title>
      </cc:Work>
    </rdf:RDF>
  </metadata>
  <g
     inkscape:label="Layer 1"
     inkscape:groupmode="layer"
     id="layer1"
     transform="translate(0,-1002.3622)">
    <rect
       style="fill:#dcecf4;fill-opacity:1;stroke-width:1;stroke-miterlimit:4;stroke-dasharray:none"
       id="rect2985"
       width="69.659973"
       height="60.02655"
       x="-9.1421356"
       y="1000.022"
       ry="1.3462422" />
    <path
       style="fill:#000000;fill-opacity:1;stroke:none"
       d="m -13.5,1066.586 c 0,0 3.104496,-9.8956 6.4030227,-12.612 3.2985268,-2.7164 24.2538743,-10.4777 24.2538743,-10.4777 l 0.776125,-3.4926 c 0,0 -2.328372,-2.7164 -3.298528,-5.2387 -0.970155,-2.5224 -1.746278,-6.015 -1.746278,-6.015 0,0 -1.940311,-2.1343 -1.940311,-4.0746 0,-1.9404 0.776125,-2.7165 0.776125,-2.7165 0,0 -0.388063,-6.9851 0,-8.9254 0.388061,-1.9403 0.388061,-4.6568 5.044805,-7.3732 4.656743,-2.7164 7.76124,-2.3284 9.89558,-2.3284 2.134342,0 7.899149,0.5585 10.477675,4.0748 2.13434,2.9104 2.328371,6.9849 2.522403,8.5372 0.194031,1.5524 -0.194032,5.4329 -0.194032,5.4329 0,0 1.358217,1.7463 1.164187,3.6866 -0.194031,1.9404 -1.94031,3.4926 -1.94031,3.4926 0,0 -0.970155,6.597 -1.940311,7.9553 -0.970155,1.3581 -3.104495,3.4924 -3.104495,3.4924 l 0.776124,3.1047 18.821006,6.5969 c 0,0 2.910465,0.7761 6.014961,4.0747 3.104496,3.2985 5.626899,13.5822 5.626899,13.5822 z"
       id="path3818"
       inkscape:connector-curvature="0"
       sodipodi:nodetypes="csccscscssssscscscccscc" />
  </g>
</svg>
